<mxfile host="app.diagrams.net" agent="Mozilla/5.0 (X11; Linux x86_64; Chromium GOST) AppleWebKit/537.36 (KHTML, like Gecko) Chrome/127.0.0.0 Safari/537.36" version="24.7.14">
  <diagram name="Страница — 1" id="e0UmErpheH39MSEIZLmF">
    <mxGraphModel dx="1430" dy="758" grid="1" gridSize="10" guides="1" tooltips="1" connect="1" arrows="1" fold="1" page="1" pageScale="1" pageWidth="827" pageHeight="1169" math="0" shadow="0">
      <root>
        <mxCell id="0" />
        <mxCell id="1" parent="0" />
        <mxCell id="iWfbBTwQtNq1Akc0Ouv_-3" value="Регистрация" style="rounded=0;whiteSpace=wrap;html=1;" vertex="1" parent="1">
          <mxGeometry x="180" y="400" width="120" height="60" as="geometry" />
        </mxCell>
        <mxCell id="iWfbBTwQtNq1Akc0Ouv_-22" value="" style="edgeStyle=orthogonalEdgeStyle;rounded=0;orthogonalLoop=1;jettySize=auto;html=1;" edge="1" parent="1" source="iWfbBTwQtNq1Akc0Ouv_-4" target="iWfbBTwQtNq1Akc0Ouv_-17">
          <mxGeometry relative="1" as="geometry" />
        </mxCell>
        <mxCell id="iWfbBTwQtNq1Akc0Ouv_-4" value="Проверка заявки&lt;div&gt;(принять отклонить)&lt;/div&gt;" style="rounded=0;whiteSpace=wrap;html=1;" vertex="1" parent="1">
          <mxGeometry x="320" y="80" width="120" height="60" as="geometry" />
        </mxCell>
        <mxCell id="iWfbBTwQtNq1Akc0Ouv_-14" value="" style="edgeStyle=orthogonalEdgeStyle;rounded=0;orthogonalLoop=1;jettySize=auto;html=1;" edge="1" parent="1" source="iWfbBTwQtNq1Akc0Ouv_-5" target="iWfbBTwQtNq1Akc0Ouv_-6">
          <mxGeometry relative="1" as="geometry" />
        </mxCell>
        <mxCell id="iWfbBTwQtNq1Akc0Ouv_-5" value="Оставить заявку" style="rounded=0;whiteSpace=wrap;html=1;" vertex="1" parent="1">
          <mxGeometry x="320" y="320" width="120" height="60" as="geometry" />
        </mxCell>
        <mxCell id="iWfbBTwQtNq1Akc0Ouv_-6" value="Просмотр статуса&amp;nbsp;&lt;span style=&quot;background-color: initial;&quot;&gt;заявки(-вок)&lt;/span&gt;" style="rounded=0;whiteSpace=wrap;html=1;" vertex="1" parent="1">
          <mxGeometry x="460" y="320" width="120" height="60" as="geometry" />
        </mxCell>
        <mxCell id="iWfbBTwQtNq1Akc0Ouv_-16" value="" style="endArrow=classic;startArrow=classic;html=1;rounded=0;exitX=0.5;exitY=0;exitDx=0;exitDy=0;entryX=0.5;entryY=1;entryDx=0;entryDy=0;" edge="1" parent="1" source="iWfbBTwQtNq1Akc0Ouv_-5" target="iWfbBTwQtNq1Akc0Ouv_-4">
          <mxGeometry width="50" height="50" relative="1" as="geometry">
            <mxPoint x="390" y="420" as="sourcePoint" />
            <mxPoint x="440" y="370" as="targetPoint" />
          </mxGeometry>
        </mxCell>
        <mxCell id="iWfbBTwQtNq1Akc0Ouv_-21" style="edgeStyle=orthogonalEdgeStyle;rounded=0;orthogonalLoop=1;jettySize=auto;html=1;entryX=0.5;entryY=0;entryDx=0;entryDy=0;" edge="1" parent="1" source="iWfbBTwQtNq1Akc0Ouv_-17" target="iWfbBTwQtNq1Akc0Ouv_-6">
          <mxGeometry relative="1" as="geometry" />
        </mxCell>
        <mxCell id="iWfbBTwQtNq1Akc0Ouv_-17" value="изменить статус заявки" style="rounded=0;whiteSpace=wrap;html=1;" vertex="1" parent="1">
          <mxGeometry x="460" y="80" width="120" height="60" as="geometry" />
        </mxCell>
        <mxCell id="iWfbBTwQtNq1Akc0Ouv_-33" style="edgeStyle=orthogonalEdgeStyle;rounded=0;orthogonalLoop=1;jettySize=auto;html=1;entryX=0;entryY=0.5;entryDx=0;entryDy=0;" edge="1" parent="1" source="iWfbBTwQtNq1Akc0Ouv_-23" target="iWfbBTwQtNq1Akc0Ouv_-4">
          <mxGeometry relative="1" as="geometry" />
        </mxCell>
        <mxCell id="iWfbBTwQtNq1Akc0Ouv_-23" value="Администратор" style="shape=umlActor;verticalLabelPosition=bottom;verticalAlign=top;html=1;outlineConnect=0;" vertex="1" parent="1">
          <mxGeometry x="70" y="80" width="30" height="60" as="geometry" />
        </mxCell>
        <mxCell id="iWfbBTwQtNq1Akc0Ouv_-24" value="Пользователь" style="shape=umlActor;verticalLabelPosition=bottom;verticalAlign=top;html=1;outlineConnect=0;" vertex="1" parent="1">
          <mxGeometry x="70" y="310" width="30" height="60" as="geometry" />
        </mxCell>
        <mxCell id="iWfbBTwQtNq1Akc0Ouv_-34" value="просмотр главной страницы сайта&amp;nbsp;" style="rounded=0;whiteSpace=wrap;html=1;" vertex="1" parent="1">
          <mxGeometry x="180" y="320" width="120" height="60" as="geometry" />
        </mxCell>
        <mxCell id="iWfbBTwQtNq1Akc0Ouv_-41" value="" style="edgeStyle=orthogonalEdgeStyle;rounded=0;orthogonalLoop=1;jettySize=auto;html=1;" edge="1" parent="1" source="iWfbBTwQtNq1Akc0Ouv_-37" target="iWfbBTwQtNq1Akc0Ouv_-40">
          <mxGeometry relative="1" as="geometry" />
        </mxCell>
        <mxCell id="iWfbBTwQtNq1Akc0Ouv_-37" value="Вход" style="rounded=0;whiteSpace=wrap;html=1;" vertex="1" parent="1">
          <mxGeometry x="320" y="400" width="120" height="60" as="geometry" />
        </mxCell>
        <mxCell id="iWfbBTwQtNq1Akc0Ouv_-40" value="Ошибка ввода полей&lt;div&gt;(Некорректные данные)&lt;/div&gt;" style="rounded=0;whiteSpace=wrap;html=1;" vertex="1" parent="1">
          <mxGeometry x="460" y="400" width="120" height="60" as="geometry" />
        </mxCell>
        <mxCell id="iWfbBTwQtNq1Akc0Ouv_-43" value="" style="endArrow=classic;html=1;rounded=0;exitX=1;exitY=0.3333333333333333;exitDx=0;exitDy=0;exitPerimeter=0;entryX=0;entryY=0.5;entryDx=0;entryDy=0;" edge="1" parent="1" source="iWfbBTwQtNq1Akc0Ouv_-24" target="iWfbBTwQtNq1Akc0Ouv_-34">
          <mxGeometry width="50" height="50" relative="1" as="geometry">
            <mxPoint x="390" y="540" as="sourcePoint" />
            <mxPoint x="440" y="490" as="targetPoint" />
          </mxGeometry>
        </mxCell>
        <mxCell id="iWfbBTwQtNq1Akc0Ouv_-44" value="" style="endArrow=classic;html=1;rounded=0;exitX=1;exitY=1;exitDx=0;exitDy=0;exitPerimeter=0;entryX=0;entryY=0;entryDx=0;entryDy=0;" edge="1" parent="1" source="iWfbBTwQtNq1Akc0Ouv_-24" target="iWfbBTwQtNq1Akc0Ouv_-3">
          <mxGeometry width="50" height="50" relative="1" as="geometry">
            <mxPoint x="390" y="540" as="sourcePoint" />
            <mxPoint x="440" y="490" as="targetPoint" />
          </mxGeometry>
        </mxCell>
        <mxCell id="iWfbBTwQtNq1Akc0Ouv_-45" value="" style="endArrow=classic;startArrow=classic;html=1;rounded=0;exitX=0.5;exitY=0;exitDx=0;exitDy=0;entryX=0.5;entryY=1;entryDx=0;entryDy=0;" edge="1" parent="1" source="iWfbBTwQtNq1Akc0Ouv_-3" target="iWfbBTwQtNq1Akc0Ouv_-34">
          <mxGeometry width="50" height="50" relative="1" as="geometry">
            <mxPoint x="390" y="540" as="sourcePoint" />
            <mxPoint x="440" y="490" as="targetPoint" />
          </mxGeometry>
        </mxCell>
        <mxCell id="iWfbBTwQtNq1Akc0Ouv_-46" value="" style="endArrow=classic;startArrow=classic;html=1;rounded=0;exitX=1;exitY=0.5;exitDx=0;exitDy=0;entryX=0;entryY=0.5;entryDx=0;entryDy=0;" edge="1" parent="1" source="iWfbBTwQtNq1Akc0Ouv_-3" target="iWfbBTwQtNq1Akc0Ouv_-37">
          <mxGeometry width="50" height="50" relative="1" as="geometry">
            <mxPoint x="390" y="540" as="sourcePoint" />
            <mxPoint x="440" y="490" as="targetPoint" />
          </mxGeometry>
        </mxCell>
      </root>
    </mxGraphModel>
  </diagram>
</mxfile>
